<?xml version="1.0" encoding="UTF-8" standalone="no"?>
<!DOCTYPE svg PUBLIC "-//W3C//DTD SVG 1.1//EN" "http://www.w3.org/Graphics/SVG/1.1/DTD/svg11.dtd">
<svg width="100%" height="100%" viewBox="0 0 870 521" version="1.1" xmlns="http://www.w3.org/2000/svg" xmlns:xlink="http://www.w3.org/1999/xlink" xml:space="preserve" xmlns:serif="http://www.serif.com/" style="fill-rule:evenodd;clip-rule:evenodd;stroke-linejoin:round;stroke-miterlimit:2;">
    <g transform="matrix(1,0,0,1,-165,-189.931)">
        <path d="M831.092,704.187C819.954,694.776 813.188,679.908 814.963,665.434C816.737,650.96 827.726,637.654 841.981,634.58C856.236,631.506 872.485,640.015 876.815,653.939C879.198,627.093 881.943,599.122 896.217,576.26C909.141,555.559 931.525,540.746 955.785,538.096C980.045,535.446 1005.59,545.455 1020.72,564.603C1035.85,583.751 1039.55,611.588 1028.96,633.572C1021.15,649.767 1006.77,661.819 991.699,671.624C943.02,703.032 884.593,715.814 827.246,707.601L831.092,704.187Z" style="fill:rgb(242,242,242);fill-rule:nonzero;"/>
    </g>
    <g transform="matrix(1,0,0,1,-165,-189.931)">
        <path d="M996.728,546.01C976.71,562.314 958.346,580.549 941.902,600.452C916.166,631.492 895.34,666.295 880.15,703.646C879.038,706.371 883.462,707.557 884.562,704.862C909.414,644.162 949.096,590.653 999.963,549.245C1002.25,547.385 998.993,544.165 996.728,546.01Z" style="fill:white;fill-rule:nonzero;"/>
    </g>
    <g transform="matrix(1,0,0,1,-165,-189.931)">
        <path d="M445.067,701.63C460.366,688.703 469.658,668.282 467.221,648.402C464.784,628.522 449.69,610.246 430.112,606.024C410.533,601.803 388.214,613.489 382.267,632.615C378.995,595.741 375.223,557.323 355.619,525.921C337.868,497.488 307.122,477.143 273.801,473.504C240.48,469.864 205.397,483.611 184.616,509.911C163.835,536.211 158.747,574.445 173.301,604.64C184.023,626.883 203.777,643.437 224.473,656.904C290.503,699.869 372.412,717.789 450.351,706.319" style="fill:rgb(242,242,242);fill-rule:nonzero;"/>
    </g>
    <g transform="matrix(1,0,0,1,-165,-189.931)">
        <path d="M217.567,484.373C245.061,506.767 270.284,531.813 292.871,559.149C315.461,586.457 335.35,615.892 352.257,647.04C361.707,664.513 370.196,682.488 377.687,700.886C379.214,704.629 373.137,706.258 371.627,702.557C358.359,670.121 341.944,639.064 322.618,609.83C303.385,580.702 281.373,553.509 256.889,528.632C243.041,514.568 228.43,501.276 213.123,488.817C209.985,486.262 214.455,481.839 217.567,484.373L217.567,484.373Z" style="fill:white;fill-rule:nonzero;"/>
    </g>
    <g transform="matrix(1,0,0,1,-165,-189.931)">
        <path d="M789.5,708.931L424.5,708.931L424.5,334.431C424.5,254.753 489.322,189.931 569,189.931L645,189.931C724.678,189.931 789.5,254.753 789.5,334.431L789.5,708.931Z" style="fill:rgb(242,242,242);fill-rule:nonzero;"/>
    </g>
    <g transform="matrix(1,0,0,1,-165,-189.931)">
        <path d="M713.5,708.931L424.5,708.931L424.5,334.431C424.42,303.905 434.091,274.137 452.096,249.486C452.76,248.582 453.422,247.689 454.104,246.805C462.815,235.381 473.18,225.32 484.859,216.955C485.518,216.475 486.181,216.003 486.853,215.531C496.625,208.769 507.196,203.24 518.325,199.072C518.986,198.822 519.659,198.571 520.332,198.33C530.397,194.738 540.83,192.278 551.44,190.994C552.098,190.904 552.773,190.834 553.448,190.764C563.787,189.658 574.215,189.658 584.554,190.764C585.227,190.834 585.902,190.904 586.568,190.995C597.175,192.279 607.606,194.739 617.668,198.33C618.341,198.571 619.014,198.822 619.677,199.073C630.669,203.188 641.115,208.634 650.783,215.289C651.455,215.75 652.127,216.222 652.79,216.693C659.336,221.366 665.485,226.572 671.173,232.257C675.735,236.818 679.986,241.679 683.898,246.808C684.578,247.689 685.24,248.582 685.903,249.485C703.909,274.136 713.58,303.904 713.5,334.431L713.5,708.931Z" style="fill:rgb(204,204,204);fill-rule:nonzero;"/>
    </g>
    <circle cx="525" cy="335.5" r="16" style="fill:rgb(143,188,187);"/>
    <path d="M594.599,507.783L582.339,507.783L576.506,460.495L594.601,460.496L594.599,507.783Z" style="fill:rgb(255,184,184);fill-rule:nonzero;"/>
    <path d="M573.582,504.28L597.225,504.28L597.225,519.167L558.695,519.167C558.695,511 565.415,504.28 573.582,504.28L573.582,504.28Z" style="fill:rgb(76,86,106);fill-rule:nonzero;"/>
    <path d="M655.599,507.783L643.339,507.783L637.506,460.495L655.601,460.496L655.599,507.783Z" style="fill:rgb(255,184,184);fill-rule:nonzero;"/>
    <path d="M634.582,504.28L658.225,504.28L658.225,519.167L619.695,519.167C619.695,511 626.415,504.28 634.582,504.28L634.582,504.28Z" style="fill:rgb(76,86,106);fill-rule:nonzero;"/>
    <g transform="matrix(1,0,0,1,-165,-189.931)">
        <path d="M698.098,528.6C696.89,526.821 696.244,524.718 696.244,522.567C696.244,518.336 698.744,514.482 702.608,512.757L744.284,397.891L764.791,409.082L717.206,518.853C717.648,520.05 717.874,521.316 717.874,522.593C717.874,528.518 712.999,533.394 707.073,533.394C703.473,533.394 700.1,531.593 698.098,528.6Z" style="fill:rgb(255,184,184);fill-rule:nonzero;"/>
    </g>
    <g transform="matrix(1,0,0,1,-165,-189.931)">
        <path d="M814.336,550.184C811.001,548.272 808.937,544.709 808.937,540.865C808.937,538.343 809.825,535.901 811.443,533.968L798.533,412.458L821.87,413.525L827.236,533.045C829.365,535.082 830.57,537.903 830.57,540.849C830.57,546.774 825.694,551.65 819.769,551.65C817.861,551.65 815.986,551.144 814.336,550.184L814.336,550.184Z" style="fill:rgb(255,184,184);fill-rule:nonzero;"/>
    </g>
    <circle cx="612.106" cy="162.123" r="24.561" style="fill:rgb(255,184,184);"/>
    <g transform="matrix(1,0,0,1,-165,-189.931)">
        <path d="M814.18,522.549L740.133,522.549L740.222,521.973C740.355,521.112 753.419,435.534 743.784,407.537C741.791,401.868 744.427,395.536 749.853,392.954L749.853,392.954C763.625,386.468 790.061,378.483 812.373,397.863C819.025,403.736 822.534,412.413 821.833,421.259L814.18,522.549Z" style="fill:rgb(143,188,187);fill-rule:nonzero;"/>
    </g>
    <g transform="matrix(1,0,0,1,-165,-189.931)">
        <path d="M754.354,448.181L721.018,441.418L736.644,404.388C738.246,398.244 743.838,393.922 750.188,393.922C757.867,393.922 764.186,400.241 764.186,407.92C764.186,409.089 764.039,410.253 763.75,411.386L754.354,448.181Z" style="fill:rgb(143,188,187);fill-rule:nonzero;"/>
    </g>
    <g transform="matrix(1,0,0,1,-165,-189.931)">
        <path d="M797.05,460.739L795.046,414.797C793.527,406.161 798.47,397.997 806.074,396.663C813.679,395.333 821.105,401.323 822.632,410.023L830.165,452.95L797.05,460.739Z" style="fill:rgb(143,188,187);fill-rule:nonzero;"/>
    </g>
    <g transform="matrix(1,0,0,1,-165,-189.931)">
        <path d="M811.716,517.049C823.631,562.426 824.93,620.119 821.716,683.049L805.716,681.049L776.716,561.049L760.716,683.049L742.716,682.049C737.339,616.02 732.103,559.334 740.716,522.049L811.716,517.049Z" style="fill:rgb(76,86,106);fill-rule:nonzero;"/>
    </g>
    <g transform="matrix(1,0,0,1,-165,-189.931)">
        <path d="M793.289,371.035C788.707,375.916 780.198,373.295 779.601,366.628C779.554,366.11 779.557,365.589 779.611,365.072C779.919,362.118 781.625,359.437 781.217,356.318C781.124,355.542 780.835,354.802 780.377,354.169C776.725,349.28 768.154,356.356 764.708,351.93C762.595,349.216 765.079,344.943 763.458,341.91C761.318,337.906 754.979,339.881 751.004,337.688C746.581,335.249 746.846,328.463 749.757,324.336C753.308,319.302 759.533,316.616 765.68,316.229C771.828,315.842 777.933,317.504 783.673,319.741C790.194,322.282 796.66,325.794 800.673,331.528C805.554,338.501 806.023,347.876 803.583,356.03C802.098,360.99 797.031,367.049 793.289,371.035Z" style="fill:rgb(76,86,106);fill-rule:nonzero;"/>
    </g>
    <g transform="matrix(1,0,0,1,-165,-189.931)">
        <path d="M1004.98,709.574L266.688,709.574C266.036,709.572 265.5,709.035 265.5,708.383C265.5,707.732 266.036,707.195 266.688,707.193L1004.98,707.193C1005.63,707.195 1006.17,707.732 1006.17,708.383C1006.17,709.035 1005.63,709.572 1004.98,709.574Z" style="fill:rgb(63,61,86);fill-rule:nonzero;"/>
    </g>
    <g transform="matrix(1,0,0,1,-165,-189.931)">
        <path d="M634,600.431L504,600.431C500.459,600.45 497.527,597.556 497.5,594.015L497.5,303.846C497.527,300.305 500.459,297.412 504,297.431L634,297.431C637.541,297.412 640.473,300.305 640.5,303.846L640.5,594.015C640.473,597.556 637.541,600.45 634,600.431Z" style="fill:white;fill-rule:nonzero;"/>
    </g>
    <rect x="332.5" y="201.39" width="143" height="2" style="fill:rgb(204,204,204);"/>
    <rect x="333" y="315.5" width="143" height="2" style="fill:rgb(204,204,204);"/>
    <rect x="377.5" y="107.5" width="2" height="304" style="fill:rgb(204,204,204);"/>
    <rect x="427.5" y="107.5" width="2" height="304" style="fill:rgb(204,204,204);"/>
</svg>
