<?xml version="1.0" encoding="UTF-8" standalone="no"?>
<!DOCTYPE svg PUBLIC "-//W3C//DTD SVG 1.1//EN" "http://www.w3.org/Graphics/SVG/1.1/DTD/svg11.dtd">
<svg width="100%" height="100%" viewBox="0 0 1006 549" version="1.1" xmlns="http://www.w3.org/2000/svg" xmlns:xlink="http://www.w3.org/1999/xlink" xml:space="preserve" xmlns:serif="http://www.serif.com/" style="fill-rule:evenodd;clip-rule:evenodd;stroke-linejoin:round;stroke-miterlimit:2;">
    <g transform="matrix(1,0,0,1,-97.2187,-175.653)">
        <path d="M970.113,720.75C970.209,720.462 979.527,691.631 963.036,665.905L961.352,666.984C977.315,691.888 968.308,719.839 968.216,720.118L970.113,720.75Z" style="fill:rgb(228,228,228);fill-rule:nonzero;"/>
    </g>
    <g transform="matrix(1,0,0,1,-97.2187,-175.653)">
        <path d="M951.243,669.605C952.518,675.648 957.898,680.012 964.074,680.012C971.268,680.012 977.187,674.093 977.187,666.899C977.187,665.99 977.093,665.083 976.905,664.193C975.411,657.107 962.741,639.471 955.655,640.965C948.568,642.459 949.749,662.519 951.243,669.605Z" style="fill:rgb(228,228,228);fill-rule:nonzero;"/>
    </g>
    <g transform="matrix(1,0,0,1,-97.2187,-175.653)">
        <path d="M953.633,702.748C959.957,709.582 971.271,709.397 971.271,709.397C971.271,709.397 972.331,698.131 966.007,691.297C959.683,684.463 948.369,684.648 948.369,684.648C948.369,684.648 947.308,695.914 953.633,702.748Z" style="fill:rgb(228,228,228);fill-rule:nonzero;"/>
    </g>
    <g transform="matrix(1,0,0,1,-97.2187,-175.653)">
        <path d="M1049.49,722.75C1049.71,722.07 1071.7,654.032 1032.79,593.32L1028.81,595.867C1066.49,654.637 1045.23,720.6 1045.01,721.259L1049.49,722.75Z" style="fill:rgb(228,228,228);fill-rule:nonzero;"/>
    </g>
    <g transform="matrix(1,0,0,1,-97.2187,-175.653)">
        <path d="M1004.96,602.051C1007.97,616.31 1020.66,626.604 1035.24,626.604C1052.21,626.604 1066.18,612.634 1066.18,595.658C1066.18,593.514 1065.96,591.377 1065.52,589.28C1061.99,572.557 1032.09,530.937 1015.37,534.464C998.645,537.99 1001.43,585.328 1004.96,602.051Z" style="fill:rgb(228,228,228);fill-rule:nonzero;"/>
    </g>
    <g transform="matrix(1,0,0,1,-97.2187,-175.653)">
        <path d="M1010.6,680.267C1025.52,696.395 1052.22,695.957 1052.22,695.957C1052.22,695.957 1054.72,669.371 1039.8,653.243C1024.87,637.115 998.174,637.552 998.174,637.552C998.174,637.552 995.672,664.139 1010.6,680.267Z" style="fill:rgb(228,228,228);fill-rule:nonzero;"/>
    </g>
    <g transform="matrix(1,0,0,1,-97.2187,-175.653)">
        <path d="M677.315,717.627L662.722,711.483L652.712,638.331L519.408,638.331L508.557,711.184L495.502,717.711C494.454,718.236 493.788,719.312 493.788,720.484C493.788,722.185 495.188,723.584 496.889,723.584L676.112,723.584C677.813,723.584 679.212,722.185 679.212,720.484C679.212,719.239 678.462,718.11 677.315,717.627Z" style="fill:rgb(230,230,230);fill-rule:nonzero;"/>
    </g>
    <g transform="matrix(1,0,0,1,-97.2187,-175.653)">
        <path d="M914.206,648.064L259.377,648.064C252.271,648.048 246.433,642.197 246.433,635.091L246.433,542.751L927.151,542.751L927.151,635.091C927.15,642.196 921.312,648.048 914.206,648.064Z" style="fill:rgb(204,204,204);fill-rule:nonzero;"/>
    </g>
    <g transform="matrix(1,0,0,1,-97.2187,-175.653)">
        <path d="M927.835,586.393L245.835,586.393L245.835,191.292C245.845,182.716 252.899,175.662 261.475,175.653L912.195,175.653C920.771,175.662 927.825,182.716 927.835,191.292L927.835,586.393Z" style="fill:rgb(67,76,94);fill-rule:nonzero;"/>
    </g>
    <g transform="matrix(1,0,0,1,-97.2187,-175.653)">
        <path d="M887.106,204.328L286.566,204.328C279.955,204.336 274.519,209.777 274.516,216.388L274.516,545.658C274.519,552.269 279.955,557.71 286.566,557.718L887.106,557.718C893.716,557.706 899.15,552.268 899.156,545.658L899.156,216.388C899.15,209.778 893.716,204.34 887.106,204.328Z" style="fill:white;fill-rule:nonzero;"/>
    </g>
    <g transform="matrix(1,0,0,1,-97.2187,-175.653)">
        <path d="M393.016,204.328L393.016,557.718L286.566,557.718C279.955,557.71 274.519,552.269 274.516,545.658L274.516,216.388C274.519,209.777 279.955,204.336 286.566,204.328L393.016,204.328Z" style="fill:rgb(240,240,240);fill-rule:nonzero;"/>
    </g>
    <g transform="matrix(1,0,0,1,-97.2187,-175.653)">
        <path d="M305.196,382.849C304.584,382.71 303.958,382.639 303.331,382.639C298.869,382.639 295.145,386.192 294.934,390.648L266.281,399.096L278.142,409.109L303.533,399.552C308.109,399.466 311.826,395.678 311.826,391.102C311.826,387.151 309.055,383.701 305.196,382.849L305.196,382.849Z" style="fill:rgb(255,182,182);fill-rule:nonzero;"/>
    </g>
    <g transform="matrix(1,0,0,1,-97.2187,-175.653)">
        <path d="M189.424,446.424C182.873,446.415 177.487,441.023 177.487,434.472C177.487,429.357 180.77,424.784 185.616,423.148L243.68,403.548L288.972,387.048L294.53,406.503L254.546,432.85L191.923,446.161C191.101,446.335 190.264,446.424 189.424,446.424Z" style="fill:rgb(143,188,187);fill-rule:nonzero;"/>
    </g>
    <path d="M128.541,538.792L136.693,538.792L140.572,507.347L128.539,507.347L128.541,538.792Z" style="fill:rgb(255,182,182);fill-rule:nonzero;"/>
    <g transform="matrix(1,0,0,1,-97.2187,-175.653)">
        <path d="M223.68,711.783L239.736,711.783C245.348,711.783 249.967,716.401 249.967,722.014L249.967,722.346L223.68,722.347L223.68,711.783Z" style="fill:rgb(59,66,82);fill-rule:nonzero;"/>
    </g>
    <path d="M66.033,538.792L74.185,538.792L78.064,507.347L66.032,507.347L66.033,538.792Z" style="fill:rgb(255,182,182);fill-rule:nonzero;"/>
    <g transform="matrix(1,0,0,1,-97.2187,-175.653)">
        <path d="M161.172,711.783L177.228,711.783C182.841,711.783 187.459,716.401 187.46,722.014L187.46,722.346L161.173,722.347L161.172,711.783Z" style="fill:rgb(59,66,82);fill-rule:nonzero;"/>
    </g>
    <g transform="matrix(1,0,0,1,-97.2187,-175.653)">
        <path d="M163.171,525.829C159.441,534.518 158.624,544.186 160.844,553.378L158.516,709.362L176.421,709.362L186.445,623.58L203.07,567.057L221.024,610.946L221.024,702.417L238.313,701.383L247.623,604.296L236.983,535.139L163.171,525.829Z" style="fill:rgb(59,66,82);fill-rule:nonzero;"/>
    </g>
    <g transform="matrix(1,0,0,1,-97.2187,-175.653)">
        <path d="M228.671,404.471L213.377,399.816L209.387,391.836L189.741,391.836L184.783,400.481C184.783,400.481 164.833,407.796 164.168,443.04C163.503,478.283 160.844,534.806 160.844,534.806L239.504,546.02L228.671,404.471Z" style="fill:rgb(143,188,187);fill-rule:nonzero;"/>
    </g>
    <g transform="matrix(1,0,0,1,-97.2187,-175.653)">
        <path d="M251.254,539.709C251.766,538.603 252.031,537.398 252.031,536.18C252.031,532.371 249.443,529.016 245.759,528.049L243.453,498.266L231.192,507.786L235.262,534.609C235.16,535.137 235.109,535.673 235.109,536.21C235.109,540.847 238.924,544.662 243.56,544.662C246.868,544.662 249.885,542.72 251.254,539.709L251.254,539.709Z" style="fill:rgb(255,182,182);fill-rule:nonzero;"/>
    </g>
    <g transform="matrix(1,0,0,1,-97.2187,-175.653)">
        <path d="M230.334,524.358L212.876,479.771L212.876,415.747C212.876,409.192 218.271,403.797 224.827,403.797C230.862,403.797 235.998,408.368 236.697,414.363L243.797,475.233L250.52,522.966L230.334,524.358Z" style="fill:rgb(143,188,187);fill-rule:nonzero;"/>
    </g>
    <circle cx="106.114" cy="186.2" r="19.632" style="fill:rgb(255,185,185);"/>
    <g transform="matrix(1,0,0,1,-97.2187,-175.653)">
        <path d="M204.618,355.885C203.7,357.064 202.44,358.128 202.238,359.609C202.088,360.707 202.568,361.791 202.613,362.898C202.621,365.203 200.811,367.141 198.511,367.291C197.735,366.314 196.613,365.673 195.378,365.499C194.119,365.356 192.907,366.057 192.401,367.219C191.818,368.866 193.168,370.539 193.385,372.272C193.414,373.554 193.206,374.831 192.773,376.038C192.275,378.027 192.142,380.132 191.27,381.987C190.397,383.842 188.456,385.438 186.447,385.028C184.758,384.683 183.615,383.047 183.143,381.389C182.67,379.731 182.692,377.973 182.35,376.283C181.239,370.793 176.513,366.724 174.658,361.438C172.282,354.665 175.137,346.917 180.056,341.69C182.044,339.399 184.641,337.718 187.545,336.841C190.61,336.06 193.851,336.621 196.997,336.288C200.361,335.931 203.523,334.564 206.792,333.695C210.062,332.826 213.713,332.499 216.685,334.115C218.758,335.242 220.259,337.186 222.19,338.542C224.403,340.084 227.089,340.803 229.777,340.572L226.566,341.976C227.795,343.103 229.279,343.916 230.891,344.344C229.579,345.384 227.956,345.954 226.282,345.962C226.988,347.233 228.189,348.157 229.598,348.512C227.161,349.657 224.573,350.829 221.892,350.571C220.579,350.444 219.324,349.978 218.027,349.738C215.263,349.226 212.424,349.756 209.662,350.286C208.212,350.564 206.433,350.831 205.7,352.225C205.091,353.386 205.557,354.68 204.618,355.885Z" style="fill:rgb(59,66,82);fill-rule:nonzero;"/>
    </g>
    <circle cx="236.547" cy="205.371" r="31.32" style="fill:rgb(143,188,187);"/>
    <path d="M255.339,205.371L238.427,205.371L238.427,188.458L234.668,188.458L234.668,205.371L217.755,205.371L217.755,209.129L234.668,209.129L234.668,226.042L238.427,226.042L238.427,209.129L255.339,209.129L255.339,205.371Z" style="fill:white;fill-rule:nonzero;"/>
    <g transform="matrix(1,0,0,1,-97.2187,-175.653)">
        <path d="M600.474,245.661C598.477,245.663 596.833,247.306 596.831,249.304L596.831,310.302C596.833,312.3 598.477,313.943 600.474,313.945L846.377,313.945C848.375,313.943 850.018,312.3 850.02,310.302L850.02,249.304C850.018,247.306 848.375,245.663 846.377,245.661L600.474,245.661Z" style="fill:white;fill-rule:nonzero;"/>
    </g>
    <g transform="matrix(1,0,0,1,-97.2187,-175.653)">
        <path d="M600.474,245.661C598.477,245.663 596.833,247.306 596.831,249.304L596.831,310.302C596.833,312.3 598.477,313.943 600.474,313.945L846.377,313.945C848.375,313.943 850.018,312.3 850.02,310.302L850.02,249.304C850.018,247.306 848.375,245.663 846.377,245.661L600.474,245.661Z" style="fill:rgb(230,230,230);fill-rule:nonzero;"/>
    </g>
    <g transform="matrix(1,0,0,1,-97.2187,-175.653)">
        <rect x="600.93" y="249.759" width="244.992" height="60.087" style="fill:white;fill-rule:nonzero;"/>
    </g>
    <g transform="matrix(1,0,0,1,-97.2187,-175.653)">
        <path d="M628.784,267.053C627.036,267.053 625.597,268.492 625.597,270.24C625.597,271.989 627.036,273.428 628.784,273.428L818.058,273.428C818.059,273.428 818.059,273.428 818.059,273.428C819.808,273.428 821.247,271.989 821.247,270.24C821.247,268.492 819.809,267.053 818.061,267.053L628.784,267.053Z" style="fill:rgb(228,228,228);fill-rule:nonzero;"/>
    </g>
    <g transform="matrix(1,0,0,1,-97.2187,-175.653)">
        <path d="M628.784,286.178C627.038,286.181 625.602,287.619 625.602,289.366C625.602,291.113 627.038,292.551 628.784,292.554L818.058,292.554C818.06,292.554 818.063,292.554 818.065,292.554C819.814,292.554 821.253,291.115 821.253,289.366C821.253,287.62 819.818,286.182 818.072,286.178L628.784,286.178Z" style="fill:rgb(228,228,228);fill-rule:nonzero;"/>
    </g>
    <g transform="matrix(1,0,0,1,-97.2187,-175.653)">
        <path d="M429.474,349.161C427.477,349.163 425.833,350.806 425.831,352.804L425.831,413.802C425.833,415.8 427.477,417.443 429.474,417.445L675.377,417.445C677.375,417.443 679.018,415.8 679.02,413.802L679.02,352.804C679.018,350.806 677.375,349.163 675.377,349.161L429.474,349.161Z" style="fill:white;fill-rule:nonzero;"/>
    </g>
    <g transform="matrix(1,0,0,1,-97.2187,-175.653)">
        <path d="M429.474,349.161C427.477,349.163 425.833,350.806 425.831,352.804L425.831,413.802C425.833,415.8 427.477,417.443 429.474,417.445L675.377,417.445C677.375,417.443 679.018,415.8 679.02,413.802L679.02,352.804C679.018,350.806 677.375,349.163 675.377,349.161L429.474,349.161Z" style="fill:rgb(230,230,230);fill-rule:nonzero;"/>
    </g>
    <g transform="matrix(1,0,0,1,-97.2187,-175.653)">
        <rect x="429.93" y="353.259" width="244.992" height="60.087" style="fill:white;fill-rule:nonzero;"/>
    </g>
    <g transform="matrix(1,0,0,1,-97.2187,-175.653)">
        <path d="M457.784,370.553C456.036,370.553 454.597,371.992 454.597,373.74C454.597,375.489 456.036,376.928 457.784,376.928L647.058,376.928C647.059,376.928 647.059,376.928 647.059,376.928C648.808,376.928 650.247,375.489 650.247,373.74C650.247,371.992 648.809,370.553 647.061,370.553L457.784,370.553Z" style="fill:rgb(228,228,228);fill-rule:nonzero;"/>
    </g>
    <g transform="matrix(1,0,0,1,-97.2187,-175.653)">
        <path d="M457.784,389.678C456.038,389.681 454.602,391.119 454.602,392.866C454.602,394.613 456.038,396.051 457.784,396.054L647.058,396.054C647.06,396.054 647.063,396.054 647.065,396.054C648.814,396.054 650.253,394.615 650.253,392.866C650.253,391.12 648.818,389.682 647.072,389.678L457.784,389.678Z" style="fill:rgb(228,228,228);fill-rule:nonzero;"/>
    </g>
    <g transform="matrix(1,0,0,1,-97.2187,-175.653)">
        <path d="M729.211,512.874C733.012,512.455 735.922,509.207 735.922,505.383C735.922,504.662 735.819,503.946 735.616,503.255L757.409,487.688L744.421,482.687L725.717,498.236C722.743,499.33 720.756,502.179 720.756,505.348C720.756,509.504 724.176,512.925 728.333,512.925C728.626,512.925 728.92,512.908 729.211,512.874Z" style="fill:rgb(255,183,183);fill-rule:nonzero;"/>
    </g>
    <g transform="matrix(1,0,0,1,-97.2187,-175.653)">
        <path d="M741.31,502.622L734.08,490.274L734.234,490.099L763.404,456.89L786.052,418.267L805.718,420.774L806.009,426.718L805.95,426.807L774.704,473.777L774.671,473.805L741.31,502.622Z" style="fill:rgb(67,76,94);fill-rule:nonzero;"/>
    </g>
    <path d="M740.467,535.914L729.346,535.913L724.054,493.014L740.469,493.015L740.467,535.914Z" style="fill:rgb(255,183,183);fill-rule:nonzero;"/>
    <g transform="matrix(1,0,0,1,-97.2187,-175.653)">
        <path d="M840.523,722.347L804.661,722.346L804.661,721.893C804.661,714.235 810.962,707.935 818.619,707.934L840.523,707.935L840.523,722.347Z" style="fill:rgb(59,66,82);fill-rule:nonzero;"/>
    </g>
    <path d="M644.748,535.55L633.93,532.967L638.746,490.012L654.712,493.824L644.748,535.55Z" style="fill:rgb(255,183,183);fill-rule:nonzero;"/>
    <g transform="matrix(1,0,0,1,-97.2187,-175.653)">
        <path d="M742.222,722.347L707.341,714.018L707.446,713.577C709.225,706.13 716.816,701.464 724.264,703.242L724.265,703.242L745.569,708.329L742.222,722.347Z" style="fill:rgb(59,66,82);fill-rule:nonzero;"/>
    </g>
    <g transform="matrix(1,0,0,1,-97.2187,-175.653)">
        <path d="M785.191,398.654L785.191,379.933C785.191,366.171 796.516,354.847 810.278,354.847C824.04,354.847 835.364,366.171 835.364,379.933L835.364,398.654C835.362,400.502 833.842,402.022 831.994,402.024L788.561,402.024C786.713,402.022 785.193,400.502 785.191,398.654Z" style="fill:rgb(59,66,82);fill-rule:nonzero;"/>
    </g>
    <circle cx="706.868" cy="207.695" r="18.392" style="fill:rgb(255,183,183);"/>
    <g transform="matrix(1,0,0,1,-97.2187,-175.653)">
        <path d="M779.256,381.431C779.269,370.549 788.219,361.599 799.101,361.586L802.845,361.586C813.727,361.599 822.677,370.549 822.689,381.431L822.689,381.805L814.777,381.805L812.078,374.248L811.538,381.805L807.449,381.805L806.087,377.992L805.815,381.805L779.256,381.805L779.256,381.431Z" style="fill:rgb(59,66,82);fill-rule:nonzero;"/>
    </g>
    <g transform="matrix(1,0,0,1,-97.2187,-175.653)">
        <path d="M814.815,480.421L767.985,478.638L765.367,448.001C763.348,442.393 763.315,437.579 765.27,433.691C766.95,430.499 769.776,428.056 773.178,426.856L783.425,414.479C786.093,411.26 790.073,409.405 794.255,409.432L820.878,409.614C821.52,409.228 825.412,407.249 833.089,410.577C841.416,414.187 839.483,426.725 839.462,426.851L839.443,426.968L839.352,427.046L821.642,441.959L814.815,480.421Z" style="fill:rgb(67,76,94);fill-rule:nonzero;"/>
    </g>
    <path d="M671.139,299.694L648.988,340.08L632.194,523.817L651.169,529.612L684.756,385.882L723.736,525.534L746.481,526.103L730.994,364.944L717.46,302.548L671.139,299.694Z" style="fill:rgb(59,66,82);fill-rule:nonzero;"/>
    <g transform="matrix(1,0,0,1,-97.2187,-175.653)">
        <path d="M624.995,445.41C623.094,444.796 621.024,445.853 620.406,447.752L601.596,505.778C600.982,507.679 602.038,509.749 603.938,510.367L837.857,586.196C839.758,586.81 841.828,585.753 842.446,583.854L861.256,525.828C861.87,523.927 860.813,521.857 858.913,521.239L624.995,445.41Z" style="fill:white;fill-rule:nonzero;"/>
    </g>
    <g transform="matrix(1,0,0,1,-97.2187,-175.653)">
        <path d="M624.995,445.41C623.094,444.796 621.024,445.853 620.406,447.752L601.596,505.778C600.982,507.679 602.038,509.749 603.938,510.367L837.857,586.196C839.758,586.81 841.828,585.753 842.446,583.854L861.256,525.828C861.87,523.927 860.813,521.857 858.913,521.239L624.995,445.41Z" style="fill:rgb(230,230,230);fill-rule:nonzero;"/>
    </g>
    <g transform="matrix(1,0,0,1,-97.2187,-175.653)">
        <path d="M605.635,506.609L838.687,582.157L857.216,524.998L624.164,449.45L605.635,506.609Z" style="fill:white;fill-rule:nonzero;"/>
    </g>
    <g transform="matrix(1,0,0,1,-97.2187,-175.653)">
        <path d="M645.328,474.49C645.011,474.387 644.68,474.335 644.347,474.335C642.598,474.335 641.159,475.774 641.159,477.522C641.159,478.9 642.052,480.129 643.362,480.554L823.412,538.92C823.731,539.024 824.065,539.077 824.4,539.077C826.149,539.077 827.588,537.638 827.588,535.89C827.588,534.511 826.693,533.281 825.381,532.857L825.378,532.856L645.328,474.49Z" style="fill:rgb(143,188,187);fill-rule:nonzero;"/>
    </g>
    <g transform="matrix(1,0,0,1,-97.2187,-175.653)">
        <path d="M639.431,492.683C639.115,492.582 638.785,492.53 638.454,492.53C636.705,492.53 635.266,493.969 635.266,495.718C635.266,497.093 636.157,498.321 637.465,498.748L817.514,557.114C817.834,557.218 818.168,557.272 818.504,557.272C820.253,557.272 821.692,555.833 821.692,554.084C821.692,552.708 820.801,551.481 819.494,551.054L819.48,551.049L639.431,492.683Z" style="fill:rgb(143,188,187);fill-rule:nonzero;"/>
    </g>
    <g transform="matrix(1,0,0,1,-97.2187,-175.653)">
        <path d="M827.539,540.728C829.13,539.299 830.041,537.258 830.041,535.119C830.041,532.8 828.97,530.606 827.142,529.179L835.79,503.832L822.32,507.331L816.173,530.865C815.32,532.121 814.864,533.604 814.864,535.122C814.864,539.279 818.284,542.699 822.441,542.699C824.326,542.699 826.144,541.996 827.539,540.728L827.539,540.728Z" style="fill:rgb(255,183,183);fill-rule:nonzero;"/>
    </g>
    <g transform="matrix(1,0,0,1,-97.2187,-175.653)">
        <path d="M831.402,525.347L818.333,519.521L822.724,475.305L818.637,430.719L836.084,421.301L839.782,425.964L839.786,426.07L841.746,482.45L841.735,482.493L831.402,525.347Z" style="fill:rgb(67,76,94);fill-rule:nonzero;"/>
    </g>
    <g transform="matrix(1,0,0,1,-97.2187,-175.653)">
        <path d="M1101.26,724.347L417.807,724.347C417.098,724.362 416.463,723.895 416.268,723.214C416.234,723.087 416.217,722.956 416.217,722.824C416.217,721.986 416.907,721.296 417.745,721.295L1101.13,721.295C1101.88,721.269 1102.55,721.766 1102.75,722.489C1102.77,722.597 1102.78,722.708 1102.78,722.819C1102.78,723.657 1102.09,724.347 1101.26,724.347Z" style="fill:rgb(204,204,204);fill-rule:nonzero;"/>
    </g>
    <g transform="matrix(1,0,0,1,-97.2187,-175.653)">
        <path d="M327.255,724.347L98.807,724.347C98.098,724.362 97.463,723.895 97.268,723.214C97.234,723.087 97.217,722.956 97.217,722.824C97.217,721.986 97.907,721.296 98.745,721.295L327.13,721.295C327.878,721.269 328.551,721.766 328.746,722.489C328.77,722.597 328.782,722.708 328.782,722.819C328.782,723.657 328.093,724.347 327.255,724.347Z" style="fill:rgb(204,204,204);fill-rule:nonzero;"/>
    </g>
</svg>
